<?xml version="1.0" standalone="no"?>
<!DOCTYPE svg PUBLIC "-//W3C//DTD SVG 20010904//EN"
 "http://www.w3.org/TR/2001/REC-SVG-20010904/DTD/svg10.dtd">
<svg version="1.0" xmlns="http://www.w3.org/2000/svg"
 width="260.000000pt" height="260.000000pt" viewBox="0 0 260.000000 260.000000"
 preserveAspectRatio="xMidYMid meet">
<metadata>
Created by potrace 1.11, written by Peter Selinger 2001-2013
</metadata>
<g transform="translate(0.000000,260.000000) scale(0.100000,-0.100000)"
fill="#000000" stroke="none">
<path d="M415 2387 c-8 -13 -13 -32 -11 -42 2 -11 5 -24 6 -30 5 -22 -1 -34
-17 -39 -26 -9 -135 -116 -130 -129 7 -22 23 -16 72 28 28 25 53 45 57 45 4 0
6 -13 4 -30 -2 -16 0 -30 5 -30 13 0 2 -39 -16 -56 -9 -9 -14 -23 -11 -30 3
-8 -1 -14 -9 -14 -8 0 -16 8 -16 18 -1 9 -2 24 -3 32 -2 26 -32 22 -64 -9 -18
-16 -32 -34 -32 -40 0 -14 23 -14 36 -1 6 6 15 3 24 -11 8 -12 23 -31 32 -43
l16 -21 31 29 c41 39 59 25 60 -50 0 -49 -2 -54 -15 -43 -24 20 -64 -7 -64
-43 0 -23 -4 -28 -23 -28 -22 0 -23 -3 -22 -70 1 -43 -3 -70 -9 -71 -6 0 -36
-2 -66 -2 l-55 -2 -1 -60 c-1 -33 2 -64 6 -70 13 -17 7 -238 -7 -242 -7 -3
-15 -20 -19 -40 -5 -26 -2 -41 13 -61 18 -24 20 -41 18 -152 -1 -69 -3 -125
-5 -125 -1 0 -4 -22 -5 -50 -2 -27 -4 -54 -4 -58 -1 -5 -6 -5 -13 -1 -8 5 -9
0 -6 -14 6 -23 6 -24 -44 -26 l-32 -1 1 -69 c1 -55 -3 -73 -18 -89 -10 -12
-19 -23 -19 -26 0 -3 30 -7 68 -8 37 0 139 -4 227 -7 88 -3 165 -6 170 -6 6 0
38 1 73 4 34 2 65 0 68 -6 3 -5 8 -27 10 -49 5 -37 4 -39 -14 -30 -10 5 -27
10 -38 10 -10 0 -28 2 -39 4 -28 6 -72 -18 -81 -45 -15 -44 -13 -52 18 -80 18
-15 27 -28 22 -29 -5 0 -18 -2 -29 -4 -11 -2 -31 -6 -44 -8 -55 -9 -24 -35 49
-42 14 -2 52 -6 85 -10 93 -11 129 -14 290 -20 83 -4 156 -11 163 -17 8 -7 12
-7 12 3 0 10 3 10 12 1 7 -7 17 -8 29 -2 12 7 20 6 25 -1 4 -8 9 -7 15 2 8 12
11 11 19 -1 5 -9 10 -10 10 -3 0 9 19 11 40 3 14 -6 37 -5 52 2 10 5 20 4 23
-2 5 -8 11 -8 20 0 7 6 16 7 19 2 6 -10 36 -9 53 1 6 4 14 3 18 -2 4 -7 15 -7
30 -1 18 7 25 6 25 -3 0 -8 3 -8 9 2 6 9 10 10 16 2 4 -8 11 -9 18 -2 16 12
29 12 46 -2 12 -9 13 -9 7 0 -9 16 6 17 22 1 7 -7 12 -8 12 -2 0 7 29 12 68
13 200 8 395 23 466 37 12 2 36 7 54 10 17 3 32 10 32 14 0 9 -48 22 -88 25
-31 3 -40 15 -20 26 26 14 39 45 32 74 -7 29 -62 66 -90 61 -10 -2 -38 -7 -62
-11 l-43 -7 3 35 2 35 60 -2 c34 -1 66 -5 72 -8 6 -4 14 -5 17 -1 9 8 81 8 95
-1 7 -4 12 -4 12 1 0 4 46 9 102 11 56 1 107 7 112 12 7 7 3 10 -9 11 -46 1
-107 8 -112 13 -3 3 11 12 31 20 40 17 52 25 104 77 50 48 65 68 81 109 8 19
18 40 21 45 11 15 23 87 21 119 -2 16 1 26 7 22 6 -3 9 5 8 19 0 14 -4 25 -7
25 -3 0 -6 6 -6 13 -2 54 -47 158 -86 198 -55 57 -122 106 -139 101 -5 -1 -8
1 -8 6 0 8 -40 26 -85 38 -40 10 -175 12 -175 2 0 -4 -12 -8 -27 -8 -16 0 -23
4 -18 8 6 4 10 25 9 47 0 22 2 44 5 49 2 6 6 35 7 65 1 31 3 57 4 59 2 2 3 52
1 76 -1 13 -68 52 -83 48 -5 -1 -8 3 -8 10 0 6 -3 8 -7 5 -3 -4 -12 -2 -20 4
-7 6 -13 9 -13 6 0 -3 -15 -1 -32 4 -40 11 -57 14 -183 33 -159 24 -614 25
-735 1 -14 -3 -45 -8 -70 -11 -25 -3 -61 -9 -80 -14 -19 -5 -46 -11 -60 -14
-14 -2 -37 -9 -51 -14 -15 -6 -30 -8 -33 -5 -3 4 -6 1 -6 -6 0 -7 -4 -10 -8
-7 -5 3 -25 -6 -45 -20 l-37 -25 0 63 c0 35 -4 58 -8 52 -14 -22 -47 -25 -60
-4 -10 16 -8 23 10 40 12 11 19 21 15 21 -4 1 -12 2 -19 3 -12 1 -20 174 -8
181 3 2 5 48 5 103 l0 101 60 27 c78 35 88 43 75 59 -8 10 -28 6 -90 -21 -44
-18 -80 -29 -80 -24 0 5 4 11 9 14 13 9 6 52 -10 68 -23 21 -38 20 -54 -5z
m-8 -801 c4 -4 8 -63 8 -132 1 -91 -3 -128 -12 -136 -17 -14 -17 -63 0 -80 16
-16 18 -277 2 -279 -5 -1 -31 -2 -57 -3 l-48 -1 -1 37 c-1 21 -2 44 -3 51 -1
6 2 18 7 25 5 6 6 12 1 12 -15 0 -3 122 14 148 24 37 25 63 2 94 -12 16 -18
33 -15 38 3 6 3 10 -2 10 -4 0 -7 46 -5 102 2 79 6 104 19 113 17 13 78 13 90
1z m174 0 c1 -6 3 -20 4 -31 2 -11 6 -61 10 -111 7 -86 6 -93 -14 -113 -12
-12 -19 -26 -16 -31 4 -6 1 -10 -5 -10 -6 0 -8 -4 -5 -10 3 -5 8 -20 10 -32 3
-12 11 -26 19 -30 11 -6 14 -35 14 -136 l-1 -128 -51 1 c-28 1 -56 3 -62 3 -6
1 -9 21 -7 50 4 49 4 73 0 107 -2 11 0 37 4 58 4 22 2 40 -4 44 -6 4 -5 10 5
17 26 20 29 47 9 81 -14 24 -16 36 -8 44 6 6 7 11 1 11 -5 0 -9 16 -9 35 0 19
2 35 5 35 3 0 5 16 5 35 0 19 -4 35 -8 35 -5 0 -5 5 -1 11 4 7 8 21 9 33 1 11
3 26 4 33 1 16 90 15 92 -1z"/>
<path d="M555 1850 c-3 -5 -1 -10 4 -10 6 0 11 5 11 10 0 6 -2 10 -4 10 -3 0
-8 -4 -11 -10z"/>
</g>
</svg>
